<svg xmlns="http://www.w3.org/2000/svg" width="128" height="128" viewBox="0 0 128 128"><circle fill="#399BFF" cx="68" cy="64" r="58.67"/><g fill="#FFF"><path d="M60.85 81.94c0-5.09-4.13-9.2-9.2-9.2-5.09 0-9.21 4.12-9.21 9.2 0 5.09 4.12 9.2 9.21 9.2 5.07 0 9.2-4.11 9.2-9.2zM85.65 72.74c-5.09 0-9.21 4.12-9.21 9.2 0 5.09 4.12 9.2 9.21 9.2a9.18 9.18 0 0 0 9.19-9.2c0-5.09-4.11-9.2-9.19-9.2zM107.12 27.23c-1.12-.81-2.11-1.23-3.47-1.23H34.5c-.08 0-.13.27-.2.27l-2.96-8.71c-.76-2.27-2.89-3.56-5.27-3.56H7.01c-3.06 0-5.55 2.43-5.55 5.5 0 3.05 2.49 5.5 5.55 5.5h15.06l13.22 39.53c.77 2.27 2.88 3.47 5.27 3.47h55.05c1.28 0 2.44-.2 3.38-.92.1-.07.19-.03.28-.1.1-.09.22-.11.31-.21.42-.41.76-.87 1-1.42.07-.14.14-.27.19-.43 0-.01.01-.01.01-.02l.19-.64c.02-.06.04-.12.05-.18l9.29-30.51c.84-2.64-.58-4.46-3.19-6.34zM91.47 57H44.55l-6.59-19h59.56l-6.05 19zM69.2 101.92c-15.77 0-19.65 8.31-19.65 8.31-.36.77-.02 1.69.75 2.04l3.69 1.71c.77.36 1.72.03 2.12-.72 0 0 2.22-4.19 13.13-4.19 10.87 0 13.09 4.19 13.09 4.19.34.63 1.07.95 1.75.82-.3.13-.3.13 0 0 .12-.02.24-.06.36-.11l.45-.21c.63-.3.73-.36.31-.17l2.94-1.32c.78-.35 1.11-1.26.76-2.03-.01-.01-3.89-8.32-19.7-8.32zM37.58 99.7c0 2.41 1.95 4.35 4.35 4.35 2.41 0 4.36-1.95 4.36-4.35 0-2.41-4.36-7.84-4.36-7.84s-4.35 5.43-4.35 7.84z"/></g></svg>